<svg width="1097" height="1101" xmlns="http://www.w3.org/2000/svg" xmlns:xlink="http://www.w3.org/1999/xlink" overflow="hidden"><defs><clipPath id="clip0"><rect x="2298" y="640" width="1097" height="1101"/></clipPath></defs><g clip-path="url(#clip0)" transform="translate(-2298 -640)"><path d="M2753.16 934.823 2876.38 1159.4 2584.14 1159.98 2423.77 1423.9 2298.55 1194.88 2449.01 934.279 2753.16 934.823Z" fill="#C55A11" fill-rule="evenodd"/><path d="M3241.6 1170.17 2985.5 1164.59 3131.12 911.214 2982.75 640.367 3243.69 646.429 3394.15 907.033 3241.6 1170.17Z" fill="#A6A6A6" fill-rule="evenodd"/><path d="M3062 912.851 2929.17 1132 2782.62 879.033 2474 872.098 2609.66 649 2910.46 649 3062 912.851Z" fill="#FFC000" fill-rule="evenodd"/><path d="M2632.13 1217.07 2885.24 1222.49 2741.24 1472.86 2887.79 1740.4 2629.9 1734.5 2481.28 1477.08 2632.13 1217.07Z" fill="#843C0C" fill-rule="evenodd"/></g></svg>